<svg width="29" height="29" viewBox="0 0 29 29" fill="none" xmlns="http://www.w3.org/2000/svg">
<path fill-rule="evenodd" clip-rule="evenodd" d="M28.537 10.704C28.545 8.734 26.955 7.13 24.985 7.122C23.015 7.113 21.411 8.705 21.403 10.675C21.397 12.192 22.351 13.548 23.781 14.054V19.03C23.781 22.971 20.587 26.166 16.647 26.166C12.706 26.166 9.512 22.971 9.512 19.03V18.935C13.602 18.342 16.639 14.838 16.647 10.704V5.947C16.643 2.664 13.983 0.004 10.701 0C10.045 0 9.512 0.533 9.512 1.189C9.512 1.846 10.045 2.379 10.701 2.379C12.671 2.379 14.268 3.976 14.268 5.947V10.704C14.268 13.989 11.607 16.652 8.323 16.652C5.04 16.652 2.378 13.989 2.378 10.704V5.947C2.378 3.976 3.975 2.379 5.945 2.379C6.602 2.379 7.134 1.846 7.134 1.189C7.134 0.533 6.602 0 5.945 0C2.663 0.004 0.004 2.664 0 5.947V10.704C0.008 14.838 3.044 18.342 7.134 18.935V19.03C7.134 24.285 11.393 28.545 16.647 28.545C21.9 28.545 26.159 24.285 26.159 19.03V14.054C27.579 13.552 28.531 12.211 28.537 10.704ZM24.97 11.894C24.313 11.894 23.781 11.361 23.781 10.704C23.781 10.048 24.313 9.515 24.97 9.515C25.627 9.515 26.159 10.048 26.159 10.704C26.159 11.361 25.627 11.894 24.97 11.894Z" fill="#333333"/>
</svg>
