<svg width="26" height="26" viewBox="0 0 26 26" fill="none" xmlns="http://www.w3.org/2000/svg">
<path fill-rule="evenodd" clip-rule="evenodd" d="M24.9777 22.7343L20.0527 17.8073C23.7377 12.8843 22.7327 5.90526 17.8087 2.22026C12.8847 -1.46374 5.90569 -0.459742 2.22069 4.46426C-1.46431 9.38826 -0.459312 16.3663 4.46469 20.0513C8.41969 23.0113 13.8527 23.0113 17.8087 20.0513L22.7357 24.9783C23.3547 25.5973 24.3587 25.5973 24.9777 24.9783C25.5967 24.3593 25.5967 23.3553 24.9777 22.7363V22.7343ZM11.1777 19.1003C6.80069 19.1003 3.25369 15.5533 3.25369 11.1773C3.25369 6.80126 6.80069 3.25326 11.1777 3.25326C15.5537 3.25326 19.1017 6.80126 19.1017 11.1773C19.0977 15.5513 15.5527 19.0963 11.1777 19.1003Z" fill="#333333"/>
</svg>
