<svg width="37" height="58" viewBox="0 0 37 58" fill="none" xmlns="http://www.w3.org/2000/svg">
<path fill-rule="evenodd" clip-rule="evenodd" d="M18.2871 57.942C17.8441 57.942 17.4261 57.766 17.1671 57.471C17.1071 57.403 16.8881 57.06 16.8551 56.984V47.283L12.3661 47.386C12.1271 47.343 11.8571 47.323 11.5171 47.323C11.3151 47.323 11.1061 47.33 10.9041 47.336C10.7021 47.343 10.4931 47.35 10.2901 47.35C9.85208 47.35 9.52807 47.317 9.24207 47.243C8.83607 47.138 8.53107 46.809 8.40407 46.34C8.25707 45.794 8.38807 45.215 8.73907 44.866C8.79207 44.816 9.28407 44.515 9.38107 44.473H16.8541L16.9531 36.078L16.8681 36.07C11.3531 35.557 6.38107 32.666 3.22707 28.137C1.75507 26.024 0.772075 23.691 0.303075 21.206C-0.187925 18.596 -0.0819255 15.946 0.618075 13.33C1.61307 9.612 3.93707 6.224 7.16107 3.791C10.3521 1.382 14.2431 0.036 18.1171 0H18.4061C23.8011 0.095 28.8921 2.43 32.3701 6.405C35.7381 10.255 37.2651 15.201 36.6701 20.333C36.2001 24.386 34.1851 28.235 30.9981 31.17C27.8431 34.076 23.8491 35.816 19.7541 36.07L19.6671 36.075V44.473H27.1551C27.6561 44.473 28.2181 45.332 28.2471 45.812C28.2721 46.224 28.1781 46.542 27.9591 46.784C27.5111 47.28 26.6111 47.354 25.8041 47.385C24.9881 47.416 24.0911 47.431 23.1361 47.431C22.1981 47.431 21.2401 47.416 20.2891 47.387C20.1881 47.384 20.0931 47.36 19.9931 47.334C19.9221 47.316 19.8501 47.297 19.7731 47.286L19.6671 47.27V56.611C19.6611 56.652 19.5451 57.145 19.5231 57.2C19.3031 57.747 18.7401 57.942 18.2871 57.942ZM18.2281 2.215C17.8001 2.215 17.3631 2.23 16.9291 2.261C8.50107 2.855 1.92207 10.15 2.26407 18.524C2.65807 28.154 10.8271 33.909 18.4981 33.909C22.0401 33.909 25.4341 32.755 28.3131 30.571C33.8431 26.376 35.9331 19.768 33.7671 13.327C31.4961 6.576 25.3971 2.215 18.2281 2.215ZM18.3601 25.958C17.5791 25.958 16.9461 25.305 16.8561 24.405C16.7541 23.396 16.8001 21.954 16.8371 20.796C16.8421 20.642 16.8461 20.495 16.8511 20.354C16.8511 20.321 16.8651 20.251 16.8801 20.178C16.9391 19.878 16.9751 19.639 16.8721 19.513C16.8331 19.466 16.7791 19.441 16.7141 19.441H11.2191C11.1471 19.406 10.8381 19.218 10.7771 19.171C10.4991 18.952 10.3141 18.598 10.2681 18.198C10.2221 17.794 10.3241 17.403 10.5481 17.124C10.6261 17.028 11.2011 16.662 11.3081 16.629H16.8551V11.277C16.8791 11.196 17.0971 10.732 17.1451 10.657C17.3991 10.269 17.8551 10.038 18.3661 10.038C18.9201 10.038 19.4181 10.309 19.6661 10.745C19.6991 10.803 19.8441 11.207 19.8601 11.274V16.629H25.2211C25.7291 16.629 26.3331 17.481 26.3451 18.037C26.3521 18.359 26.1141 18.869 25.8151 19.174C25.6961 19.296 25.5131 19.441 25.3181 19.441H19.8601V24.9C19.8461 25.012 19.4141 25.544 19.2711 25.646C18.9841 25.85 18.6691 25.958 18.3601 25.958Z" fill="#274878"/>
</svg>
