<svg width="39" height="61" viewBox="0 0 39 61" fill="none" xmlns="http://www.w3.org/2000/svg">
<path fill-rule="evenodd" clip-rule="evenodd" d="M0.00378678 19.1544C0.111787 13.8724 3.68179 11.0514 5.03579 6.24042C5.28579 5.35342 5.46479 4.45442 5.57879 3.53942C5.66679 2.83342 5.32379 1.76742 6.32579 1.60442C7.58979 1.39942 7.75279 2.29642 7.71579 3.33042C7.53779 8.26842 4.98179 10.8744 3.11479 14.9424C1.35379 18.7804 2.27979 24.1014 3.16879 28.1234C5.23279 37.4654 9.82979 44.7454 17.8108 50.0454C21.9988 52.8284 28.1218 55.7054 32.7598 52.3124C32.3388 52.3194 32.0108 52.6094 31.5568 52.6754C30.7638 52.7924 29.1268 52.9134 28.3948 52.6534C27.8258 52.4504 27.6008 51.7994 27.7798 51.2454C27.8658 50.9744 28.1878 50.8744 28.1768 50.5804H26.4438C22.9518 50.5804 17.9648 45.1824 15.8208 42.6414C13.3588 39.7224 12.0038 37.9444 11.1258 34.1424C10.1848 30.0684 9.73179 25.8994 9.05479 21.7764C9.35279 20.3254 10.7758 20.4514 11.1528 21.9264C12.4178 26.8814 11.9638 33.8784 14.8928 38.2024C16.7708 40.9734 21.9088 46.9734 24.9358 48.1744C25.2208 48.2864 25.6478 48.4534 25.9348 48.5164C27.8688 48.9464 30.4218 48.2814 30.7038 51.0344C31.9198 51.3734 34.2268 48.4784 34.7918 47.5244C36.2238 45.1054 36.6738 42.5094 36.0388 39.7514C34.9708 35.1204 29.8138 29.5754 24.6608 31.0154C24.1708 31.1524 23.4558 31.6134 22.9888 31.5664C22.2048 31.4894 21.8168 30.6714 22.1658 29.9714C22.4968 29.3064 25.0768 28.5584 25.9038 28.1214C28.8648 26.5554 30.2208 23.3494 26.7978 21.3724C22.0678 18.6394 15.7178 17.4004 14.2348 11.0134C14.1378 10.5954 14.0518 9.30842 13.9228 9.08942C13.7298 8.76142 11.7458 8.33642 12.4788 7.08742C13.0918 6.04242 13.8928 6.88542 14.5868 7.08242C16.9338 7.74942 18.5378 4.51242 18.8668 2.62942C19.0458 1.60142 18.6898 -0.433584 20.3568 0.082416C21.5388 0.447416 20.8808 3.37442 20.6288 4.28042C20.0228 6.46742 18.3508 8.78442 15.9988 9.20942C16.2318 12.7394 19.1548 15.2484 22.0248 16.8644C24.6758 18.3574 29.4508 19.5914 30.6088 22.5924C31.5218 24.9604 30.5178 27.3634 28.6238 28.8834C33.0958 30.2194 36.9378 34.6044 38.0068 39.1254C38.8898 42.8634 38.1588 46.2164 36.0928 49.3854C35.8728 49.7234 35.1618 50.4514 35.0548 50.6944C34.9528 50.9254 35.0128 51.2084 34.9198 51.4544C34.0138 53.8534 31.3578 55.1154 28.9708 55.5124C28.8388 55.6674 29.0298 58.9934 28.9618 59.5854C28.8308 60.7074 27.2478 60.6704 26.9968 59.8684C26.7868 59.1984 27.1368 55.8644 26.8418 55.6614C23.4758 55.3724 20.2688 53.7364 17.4528 51.9684C14.1648 49.9044 11.0318 47.3104 8.55579 44.3194C6.91479 46.7034 5.69379 49.4104 5.08879 52.2564C4.92979 53.0064 4.80179 55.0644 4.56279 55.5334C4.28179 56.0844 3.25679 56.1054 2.90779 55.6404C2.34979 54.8984 2.98879 52.1114 3.20979 51.1604C3.92979 48.0714 5.33379 45.2684 7.15379 42.6964C2.73879 35.9144 0.406787 28.3134 0.119787 20.2084C0.114787 20.0644 0.00378678 19.9524 0.00378678 19.9384C-0.000213218 19.6784 -0.00221322 19.4144 0.00378678 19.1544ZM22.1348 41.1354C22.2848 42.9524 24.5268 45.0544 25.9528 46.0384C26.4948 46.4134 26.9618 46.8464 27.6618 46.7704C28.8848 46.6384 31.6658 43.8594 32.2908 42.7854C34.3818 39.1894 30.6258 36.1964 27.5638 38.8394C26.5268 38.2054 25.7518 37.6504 24.4578 37.8584C22.8838 38.1104 22.0098 39.6144 22.1348 41.1354ZM27.5638 40.8544C28.3808 40.8464 29.4058 38.9854 30.6328 39.9024C31.8808 40.8354 29.9768 42.8684 29.2418 43.5374C28.9268 43.8234 27.7268 44.8484 27.3638 44.7484C27.0078 44.6514 24.8138 42.5784 24.5498 42.1864C23.9938 41.3594 23.6698 39.7764 25.0158 39.6444C26.0228 39.5464 26.7628 40.8624 27.5638 40.8544Z" fill="#274878"/>
</svg>
