<svg width="49" height="51" viewBox="0 0 49 51" fill="none" xmlns="http://www.w3.org/2000/svg">
<path fill-rule="evenodd" clip-rule="evenodd" d="M20.2975 50.028C15.2255 50.028 10.1585 48.119 6.39546 44.791C2.35146 41.213 0.0814641 36.261 0.0034641 30.847C0.000464102 30.623 -0.0025359 30.362 0.0034641 30.11C0.129464 25.016 2.31846 20.312 6.16846 16.864C7.99346 15.231 10.0995 13.95 12.4295 13.058C14.7925 12.153 17.2675 11.695 19.7875 11.695C20.4295 11.695 21.0785 11.726 21.7175 11.787C24.8915 12.088 28.1855 13.225 30.7545 14.904L30.7905 14.927L31.1085 14.836L43.4015 2.669L32.2955 2.674C31.5275 2.535 31.2375 1.911 31.2225 1.418C31.2085 0.94 31.4535 0.396 32.0325 0.256C32.3135 0.188 32.7395 0.155 33.3355 0.155C33.7965 0.155 34.2915 0.174 34.7705 0.192C35.1935 0.209 35.5925 0.224 35.9215 0.224C35.9815 0.224 36.0385 0.224 36.0935 0.222C38.1285 0.182 40.2065 0.161 42.2155 0.142L43.4095 0.13C43.8405 0.126 44.2855 0.095 44.7165 0.066C45.1885 0.033 45.6775 0 46.1545 0C46.4155 0 46.6515 0.01 46.8765 0.029C47.4245 0.078 47.7675 0.285 47.9835 0.699L48.0195 16.441C47.8485 17.068 47.2785 17.348 46.7855 17.348C46.3405 17.348 45.9585 17.137 45.7385 16.767C45.7095 16.718 45.5775 16.419 45.5555 16.354V4.162L32.9795 16.557L33.0585 16.623C37.1085 20.002 39.4925 25.053 39.5965 30.48C39.7045 36.062 37.4375 41.366 33.3765 45.032C29.7565 48.3 25.2345 50.028 20.2975 50.028ZM19.5965 14.166C19.1275 14.166 18.6505 14.184 18.1805 14.219C11.1915 14.733 5.48946 19.1 3.29946 25.615C1.18946 31.891 2.95947 38.371 8.03446 42.95C11.2835 45.881 15.5305 47.496 19.9945 47.496C26.9245 47.496 34.7865 43.471 36.7275 34.478C37.8075 29.474 36.7155 24.599 33.6515 20.75C30.3705 16.628 25.1165 14.166 19.5965 14.166ZM19.7165 38.817C19.6355 38.817 19.5495 38.811 19.4605 38.799C19.0735 38.745 18.4805 38.269 18.4805 37.927V31.588H12.0315C11.8285 31.588 11.6495 31.444 11.5355 31.323C11.2655 31.038 11.0645 30.57 11.0785 30.258C11.0955 29.856 11.6685 29.091 12.0315 29.091H18.4805V22.578C18.5025 22.513 18.6345 22.215 18.6645 22.165C18.8705 21.819 19.2735 21.603 19.7165 21.603C20.0485 21.603 20.3495 21.722 20.5645 21.938C20.6635 22.038 20.9395 22.572 20.9495 22.661V29.091H27.3065C27.7355 29.091 28.2495 29.781 28.2735 30.249C28.2915 30.58 28.0915 31.077 27.8295 31.357C27.7305 31.462 27.5755 31.588 27.3985 31.588H21.0445L20.8675 31.796L20.8845 31.846C20.9175 31.944 20.9515 32.062 20.9535 32.186C20.9595 32.576 20.9705 32.988 20.9815 33.423C21.0155 34.757 21.0535 36.269 20.9525 37.46C20.9095 37.967 20.6925 38.817 19.7165 38.817Z" fill="#274878"/>
</svg>
