<svg width="52" height="53" viewBox="0 0 52 53" fill="none" xmlns="http://www.w3.org/2000/svg">
<path fill-rule="evenodd" clip-rule="evenodd" d="M25.7581 52.381C25.6061 52.381 25.4031 51.865 25.3411 51.319C25.2191 50.245 25.1221 47.953 25.2531 46.942C25.2701 46.813 25.3541 46.667 25.4621 46.651C25.5971 46.664 26.1471 46.91 26.2811 47.042C26.2331 47.405 26.2301 48.065 26.2261 48.823C26.2201 50.016 26.2111 52.012 25.9151 52.291C25.8541 52.349 25.7971 52.381 25.7581 52.381ZM24.1791 48.078C24.1271 48.021 24.0771 47.962 24.0481 47.919C23.5551 47.216 23.6051 46.535 24.1811 46.038L24.8401 46.322C24.8081 46.347 24.7721 46.372 24.7351 46.398C24.6141 46.484 24.4761 46.582 24.3631 46.736C23.9911 47.246 24.0631 47.561 24.1461 47.927C24.1571 47.976 24.1681 48.026 24.1791 48.078ZM27.4001 47.999C27.4401 47.831 27.4841 47.641 27.4641 47.399C27.3851 46.471 26.4401 46.09 25.6811 45.784C25.4651 45.697 25.2611 45.614 25.0891 45.527L25.0331 45.498C24.2401 45.092 23.2541 44.587 22.8831 43.81C22.3831 42.76 22.6141 41.656 23.4831 40.906L24.6591 41.337C24.5611 41.418 24.4191 41.516 24.3441 41.568C24.2331 41.644 24.1731 41.687 24.1351 41.723C23.7801 42.074 23.6001 42.484 23.6161 42.907C23.6331 43.365 23.8821 43.821 24.3171 44.191C24.6571 44.48 25.1701 44.716 25.7131 44.967C26.6561 45.402 27.7251 45.894 27.8331 46.709C27.8961 47.184 27.7411 47.637 27.4001 47.999ZM27.4941 44.883C27.4281 44.883 27.3651 44.844 27.2491 44.77C27.1761 44.723 27.0861 44.665 26.9741 44.611C27.7421 43.907 28.0751 43.289 27.9911 42.727C27.8511 41.799 26.6311 41.277 25.4511 40.772C25.1641 40.649 24.8921 40.532 24.6371 40.411C22.8811 39.575 21.1731 38.595 21.2571 36.63C21.2901 35.853 22.1291 34.404 22.8691 34.083C23.0211 34.085 23.4161 34.293 23.7331 34.46C23.9511 34.575 24.1621 34.686 24.3491 34.765C24.3121 34.79 24.2751 34.815 24.2381 34.841C23.3971 35.421 22.3501 36.143 22.8081 37.473C23.1451 38.454 24.3391 38.963 25.6031 39.502C26.8561 40.037 28.1511 40.59 28.6601 41.62C29.1981 42.708 28.9171 43.844 27.9071 44.658C27.7191 44.81 27.5841 44.883 27.4941 44.883ZM26.3701 44.235C26.1201 44.207 25.5621 43.921 25.3161 43.795C25.2741 43.774 25.2401 43.756 25.2121 43.742L25.1301 41.903C25.2281 41.78 25.3261 41.763 25.4011 41.763C25.5671 41.763 25.7751 41.859 25.9761 41.952C26.1051 42.012 26.2381 42.073 26.3701 42.115V44.235ZM28.1981 39.736C27.9911 39.645 27.3651 39.313 27.1411 39.182C28.2121 38.619 28.8131 37.879 28.8391 37.084C28.8571 36.521 28.5891 35.685 27.2101 34.906C26.5491 34.532 25.7631 34.216 24.9311 33.879C22.8991 33.06 20.7981 32.211 20.0301 30.402C18.9871 27.944 20.4921 25.983 22.2741 24.948L24.3731 25.82C24.1761 25.944 23.9681 26.058 23.7531 26.177C23.1541 26.509 22.5341 26.852 22.0821 27.432C21.5671 28.091 21.3861 28.741 21.5461 29.362C21.9411 30.902 24.2871 31.909 26.1721 32.717C26.8411 33.004 27.4191 33.252 27.7881 33.476C29.3651 34.432 30.2631 35.675 30.2511 36.886C30.2411 37.958 29.5321 38.942 28.1981 39.736ZM26.3701 38.748C26.0421 38.657 25.3091 38.358 25.0901 38.232L25.0131 35.321C25.0381 35.27 25.1821 35.176 25.2671 35.155C25.4451 35.169 26.2341 35.5 26.4371 35.641L26.3701 38.748ZM28.8751 32.956C28.7521 32.956 28.5291 32.793 28.3651 32.674C28.2631 32.599 28.1661 32.528 28.0781 32.48C27.8281 32.344 27.5451 32.194 27.2461 32.074C27.4191 31.966 27.6021 31.863 27.7941 31.754C28.5691 31.315 29.3701 30.862 29.7491 29.999C30.6851 27.869 28.3771 26.578 27.6181 26.155C26.8721 25.738 25.8741 25.318 24.8171 24.873C21.5851 23.514 17.5631 21.823 17.2661 18.843C17.1831 18.016 17.4161 17.279 17.9571 16.652C19.1641 15.255 21.6581 14.637 23.5121 14.522V16.524H22.3441C22.0291 16.524 21.0571 16.769 20.7501 16.88C19.6961 17.262 19.3871 17.865 19.3141 18.305C19.1851 19.075 19.6781 20.018 20.6021 20.765C21.6861 21.644 23.2991 22.282 25.0071 22.957C28.5191 24.344 32.1501 25.779 31.7501 29.474C31.6381 30.506 30.8401 31.515 30.1901 32.066C29.9611 32.26 29.0351 32.908 28.8911 32.955C28.8881 32.956 28.8821 32.956 28.8751 32.956ZM26.3881 31.63C26.1701 31.63 25.8061 31.457 25.5141 31.319C25.3291 31.231 25.1621 31.152 25.0221 31.107L24.9321 26.492C24.9461 26.428 24.9831 26.332 25.2041 26.332C25.6431 26.332 26.3421 26.702 26.6001 26.9L26.5311 31.526C26.5131 31.606 26.4791 31.63 26.3881 31.63ZM27.2941 22.688C27.3731 22.654 27.4541 22.619 27.5381 22.583C29.2331 21.855 31.7961 20.755 32.1591 19.036C32.2641 18.543 32.1851 18.106 31.9271 17.737C31.3911 16.975 30.2041 16.708 29.5431 16.618C29.3101 16.586 29.0341 16.58 28.7681 16.575C28.4811 16.569 28.2101 16.564 28.0111 16.526C27.9821 16.521 27.9651 16.517 27.9541 16.512V14.521C27.9681 14.518 27.9881 14.515 28.0161 14.515C28.0231 14.515 28.0311 14.515 28.0381 14.515C30.1511 14.624 32.8811 15.494 33.8831 17.145C34.3931 17.987 34.4031 18.96 33.9131 20.038C33.2031 21.598 31.0441 22.94 29.2321 23.689L27.2941 22.688ZM26.2001 22.184C25.8891 22.184 25.5421 22.003 25.2061 21.828C25.1151 21.78 25.0211 21.731 24.9281 21.687L24.8501 8.851L24.6881 8.836C24.4701 8.816 24.2551 8.803 24.0471 8.789C23.4471 8.751 22.8801 8.715 22.2931 8.538C20.6551 8.044 19.6491 6.769 19.4621 4.948C19.4441 4.772 19.4481 4.597 19.4521 4.427C19.4621 4.001 19.4731 3.561 19.1361 3.106C18.8311 2.697 18.3511 2.489 17.7071 2.489C16.8731 2.489 15.9161 2.842 15.2591 3.139C14.4211 3.517 13.6541 3.908 12.9121 4.286C11.3781 5.068 9.92909 5.806 8.04509 6.349C7.70709 6.446 7.30709 6.524 6.92109 6.6C6.42909 6.696 5.92009 6.796 5.51809 6.939C5.50409 6.944 5.49009 6.949 5.47609 6.953C5.38309 6.984 5.25509 7.025 5.17009 7.16L5.11509 7.247L5.16109 7.338C5.65409 8.304 6.60309 8.794 7.98309 8.794C8.70709 8.794 9.52809 8.663 10.4921 8.392C11.1711 8.202 11.8231 7.92 12.4541 7.647C13.1611 7.341 13.8901 7.025 14.6431 6.848C14.8831 6.925 15.1581 7.061 15.2031 7.291C15.2501 7.537 15.0291 7.887 14.6251 8.206C13.6311 8.991 12.4941 9.335 11.3941 9.668C10.8361 9.837 10.2591 10.011 9.70209 10.242C9.56209 10.3 9.40009 10.387 9.38509 10.555C9.36709 10.74 9.53409 10.849 9.71109 10.965L9.73709 10.982C10.2621 11.325 10.9011 11.5 11.6351 11.5C12.4391 11.5 13.3641 11.282 14.2411 10.885C14.5541 10.744 14.9871 10.465 15.4451 10.169C16.1051 9.743 16.9251 9.213 17.2941 9.192C17.3161 9.191 17.3371 9.19 17.3581 9.19C17.5941 9.19 17.7841 9.266 17.9071 9.409C18.0311 9.555 18.0771 9.762 18.0391 10.005C17.9841 10.353 17.0911 11.082 15.8171 11.818C15.7111 11.88 15.5611 11.946 15.4031 12.015C15.1591 12.121 14.9071 12.232 14.7591 12.354C14.6941 12.408 14.6131 12.475 14.6191 12.589C14.6251 12.707 14.7211 12.771 14.7721 12.805C15.2031 13.094 15.9901 13.126 16.3081 13.126C16.5401 13.126 16.7661 13.111 16.9451 13.083C17.7121 12.964 18.2771 12.591 18.8241 12.23C19.0591 12.075 19.3021 11.915 19.5571 11.778C19.8301 11.631 20.0841 11.557 20.3131 11.557C20.6371 11.557 20.8871 11.714 20.9991 11.986C21.1591 12.38 20.9971 12.896 20.5841 13.303C19.8351 14.042 18.5671 14.416 16.8151 14.416C13.7641 14.416 10.3041 13.299 9.31609 12.958C8.16209 12.558 5.29209 11.375 5.07509 11.001C4.97609 10.831 5.01809 10.719 5.11409 10.503C5.17609 10.361 5.24709 10.201 5.25209 10.004L5.25609 9.852L5.10709 9.823C3.56709 9.525 1.99509 8.637 1.00209 7.508C0.514092 6.952 -0.252909 5.674 0.0820915 5.316C0.114092 5.282 0.295092 5.171 1.29009 5.171C1.55809 5.171 1.83309 5.178 2.07609 5.185C2.27709 5.19 2.45009 5.194 2.59109 5.194C2.65509 5.194 2.71209 5.194 2.75909 5.191C5.55709 5.054 8.91809 4.188 11.9801 2.815C12.4501 2.605 12.9241 2.358 13.4271 2.098C14.8631 1.353 16.3481 0.583 17.8461 0.583C18.4861 0.583 19.0721 0.722 19.6381 1.01C20.9871 1.695 21.0881 2.773 21.1941 3.914C21.2741 4.768 21.3561 5.652 22.0081 6.323C22.6071 6.941 23.5211 7.071 24.1821 7.071C24.3031 7.071 24.4271 7.066 24.5501 7.058L24.5971 7.054L24.7631 6.944L24.7831 6.916C24.9461 6.682 24.8031 5.809 24.7371 5.652C24.6611 5.471 24.4491 5.361 24.2451 5.253C24.1541 5.206 24.0601 5.157 24.0101 5.115C22.9881 4.267 22.6221 3.081 23.0321 1.944C23.4501 0.781 24.5311 0 25.7211 0C26.1971 0 26.6731 0.123 27.1371 0.366C27.9751 0.805 28.5101 1.586 28.6061 2.508C28.7081 3.502 28.2911 4.489 27.4901 5.148C27.4291 5.199 27.3391 5.247 27.2431 5.299C27.0141 5.422 26.7541 5.563 26.7011 5.835C26.6991 5.844 26.5971 6.825 26.8501 7.002L26.8871 7.027L26.9311 7.032C27.1591 7.059 27.3661 7.072 27.5651 7.072C28.4261 7.072 29.0731 6.825 29.5411 6.318C30.1651 5.643 30.2591 4.733 30.3501 3.854C30.4821 2.579 30.6061 1.376 32.2581 0.821C32.7271 0.664 33.1921 0.588 33.6801 0.588C35.1641 0.588 36.5651 1.321 37.9211 2.03C38.3611 2.261 38.8161 2.499 39.2641 2.707C41.6241 3.797 45.2791 5.023 48.4611 5.191C48.5221 5.194 48.5961 5.196 48.6781 5.196C48.8551 5.196 49.0761 5.189 49.3091 5.182C49.5811 5.175 49.8881 5.165 50.1751 5.165C50.9271 5.165 51.1861 5.231 51.2711 5.286C51.3621 5.345 51.4151 5.423 51.4371 5.531C51.4991 5.836 51.2971 6.364 50.8821 6.978C49.9751 8.318 48.1151 9.487 46.3581 9.821L46.2981 9.833L46.2581 9.878C46.1561 9.992 46.2191 10.128 46.2931 10.287C46.3871 10.49 46.5301 10.796 46.4031 11.016C46.2841 11.223 44.9611 11.864 43.3251 12.509C40.9821 13.43 37.4881 14.416 34.7101 14.416C33.1101 14.416 31.9001 14.092 31.1151 13.454C30.6221 13.054 30.1851 12.386 30.5781 11.821C30.7221 11.615 30.8941 11.519 31.1191 11.519C31.5651 11.519 32.1321 11.902 32.5871 12.211C32.7961 12.352 32.9931 12.485 33.1621 12.572C33.8871 12.942 34.6251 13.139 35.2951 13.139C35.8631 13.139 36.3851 13.001 36.8461 12.728L37.0971 12.58L36.8511 12.422C36.5501 12.23 36.2331 12.067 35.9261 11.909C35.6381 11.761 35.3391 11.608 35.0621 11.433L35.0161 11.404C34.5531 11.113 33.5881 10.507 33.4651 9.922C33.4321 9.767 33.4621 9.624 33.5571 9.484C33.6821 9.3 33.8451 9.214 34.0711 9.214C34.6301 9.214 35.4041 9.744 35.9701 10.131C36.1891 10.281 36.3791 10.411 36.5331 10.496C37.7921 11.193 38.8381 11.517 39.8221 11.517C40.3321 11.517 40.8251 11.424 41.2871 11.243C42.0381 10.947 42.1341 10.73 42.1341 10.575C42.1341 10.474 42.0841 10.334 41.8431 10.239C41.3991 10.064 40.8791 9.907 40.3281 9.741C38.9551 9.328 37.3991 8.858 36.5621 7.952C36.3301 7.703 36.2451 7.405 36.3391 7.175C36.4171 6.981 36.6171 6.867 36.8991 6.853L36.9151 6.852C37.2861 6.852 38.3251 7.319 39.1601 7.694C39.6981 7.935 40.2071 8.163 40.5221 8.264C41.6311 8.619 42.6351 8.798 43.5041 8.798C44.1631 8.798 44.7451 8.693 45.2351 8.485C45.9471 8.183 46.3431 7.69 46.3231 7.131L46.3171 6.988L46.1761 6.961C44.1731 6.588 42.2641 6.026 40.5021 5.289C39.9511 5.059 39.2531 4.688 38.5151 4.296C36.9041 3.44 35.0781 2.469 33.8551 2.455L33.8341 2.454C33.0621 2.454 32.3651 2.909 32.1371 3.559C32.0131 3.912 32.0141 4.245 32.0151 4.567C32.0161 4.75 32.0161 4.923 31.9951 5.099C31.7051 7.478 29.9691 8.843 27.2311 8.843C27.1171 8.843 27.0001 8.841 26.8831 8.836L26.6971 8.828L26.6181 22.044C26.4931 22.138 26.3551 22.184 26.2001 22.184Z" fill="#274878"/>
</svg>
