<svg width="31" height="24" viewBox="0 0 31 24" fill="none" xmlns="http://www.w3.org/2000/svg">
<path fill-rule="evenodd" clip-rule="evenodd" d="M29.1835 15.22C27.2385 18.445 22.8145 23.853 15.0515 23.853C7.2875 23.853 2.8645 18.445 0.9195 15.22C-0.3065 13.202 -0.3065 10.651 0.9195 8.633C2.8645 5.409 7.2875 0 15.0515 0C22.8145 0 27.2385 5.409 29.1835 8.633C30.4095 10.651 30.4095 13.202 29.1835 15.22ZM27.0455 9.969C25.3755 7.2 21.5955 2.553 15.0515 2.553C8.5075 2.553 4.7275 7.205 3.0575 9.969C2.3295 11.168 2.3295 12.685 3.0575 13.884C4.7275 16.649 8.5075 21.3 15.0515 21.3C21.5955 21.3 25.3755 16.649 27.0455 13.884C27.7735 12.685 27.7735 11.168 27.0455 9.969ZM15.0515 18.308C11.5895 18.308 8.7825 15.451 8.7825 11.927C8.7825 8.402 11.5895 5.546 15.0515 5.546C18.5115 5.549 21.3165 8.404 21.3205 11.927C21.3205 15.451 18.5135 18.308 15.0515 18.308ZM15.0515 8.098C12.9735 8.098 11.2895 9.812 11.2895 11.927C11.2895 14.042 12.9735 15.756 15.0515 15.756C17.1285 15.756 18.8125 14.042 18.8125 11.927C18.8125 9.812 17.1285 8.098 15.0515 8.098Z" fill="#333333"/>
</svg>
