<svg width="58" height="56" viewBox="0 0 58 56" fill="none" xmlns="http://www.w3.org/2000/svg">
<path fill-rule="evenodd" clip-rule="evenodd" d="M57.0425 13.1625C55.3065 1.96154 44.9345 -1.62446 34.7865 0.649536C23.3335 3.21654 13.6425 14.3205 13.1415 26.0985C13.2605 26.1225 13.2815 26.0685 13.3325 25.9805C13.5065 25.6865 13.6585 25.0965 13.8185 24.7475C17.7385 16.2285 26.9465 8.50454 36.9085 11.8615C48.1035 15.6355 48.6225 29.9145 44.4505 39.1265L43.0605 42.0345C44.9555 40.8285 46.6365 39.3395 48.1855 37.7305C54.2655 31.4175 58.4235 22.0715 57.0425 13.1625ZM57.1945 41.2465L57.1915 29.3275C57.0505 29.2975 57.0315 29.3975 56.9725 29.4855C56.6725 29.9265 56.4535 30.6165 56.1935 31.1145C52.5405 38.1315 46.6215 44.0515 39.2715 47.1545C36.8785 49.9665 34.1215 52.3615 30.9045 54.2025C30.6695 54.3375 29.1375 55.0865 29.1355 55.1875L29.3725 55.2935C33.9055 55.1275 38.5815 55.5015 43.0975 55.2935C50.9025 54.9335 56.6175 48.8865 57.1945 41.2465Z" fill="#274878"/>
<path fill-rule="evenodd" clip-rule="evenodd" d="M32.1675 16.6545L32.0645 16.5515H25.0675C24.9735 20.0175 26.1055 23.4655 28.3095 26.1315C31.0425 29.4395 35.3825 31.6705 39.7555 31.4265L39.7515 24.2445H32.1675V16.6545Z" fill="#274878"/>
<path fill-rule="evenodd" clip-rule="evenodd" d="M14.1065 13.5995C12.2935 17.0135 10.9065 20.7425 10.5215 24.6225C9.70153 32.9055 12.9355 42.3485 22.0865 44.0765C31.0885 45.7745 39.4985 39.1135 43.0505 31.3435C43.3845 30.6115 43.6205 29.8225 43.9905 29.1225C44.0575 29.1695 44.0795 29.2125 44.0945 29.2925C44.1475 29.5885 43.9945 30.7625 43.9475 31.1385C42.1235 45.7265 26.2125 58.6775 11.3195 54.8725C5.23454 53.3185 0.961535 48.4015 0.189535 42.1975C-1.12447 31.6405 4.52053 20.0885 13.1885 14.0915C13.3305 13.9935 13.9885 13.5085 14.1065 13.5995ZM14.2065 0.270508C6.44054 0.456508 0.485535 6.67151 0.108535 14.3165L0.112535 25.8925C0.227535 25.9165 0.252535 25.8615 0.308535 25.7795C0.483535 25.5265 0.678535 24.9135 0.843535 24.5965C4.00153 18.5405 9.07854 13.0085 15.0785 9.65551C15.6995 9.30951 17.2845 8.73451 17.6885 8.40951C18.0205 8.14351 18.4375 7.48251 18.7585 7.14051C20.9945 4.75251 23.6575 2.59651 26.5375 1.01651C26.8885 0.823508 27.3955 0.655508 27.7045 0.462508C27.7905 0.408508 27.8505 0.398508 27.8245 0.272508L14.2065 0.270508Z" fill="#274878"/>
<path fill-rule="evenodd" clip-rule="evenodd" d="M31.7205 35.0274C30.2365 28.5044 24.2215 23.6154 17.4205 23.9064L17.3745 30.9774L25.0675 31.1134V38.7714L25.1705 38.8744H31.9955C32.0635 38.8304 32.0845 38.7794 32.0985 38.7024C32.1495 38.4264 32.1165 37.7114 32.0985 37.3984C32.0555 36.6544 31.8865 35.7564 31.7205 35.0274Z" fill="#274878"/>
</svg>
