<svg width="159" height="34" viewBox="0 0 159 34" fill="none" xmlns="http://www.w3.org/2000/svg">
<path fill-rule="evenodd" clip-rule="evenodd" d="M27.7864 0.14794C28.7344 1.03794 27.7134 3.66794 26.8584 4.46894C24.2824 6.88294 16.8514 5.28194 13.5054 5.08294C13.2974 5.07094 12.9394 5.03194 12.8104 5.21494C12.7484 5.30294 12.6214 7.04194 12.6064 7.35994C12.4724 10.1619 12.6904 13.0149 12.7484 15.7949C12.8304 19.6999 12.9734 23.5989 13.0004 27.5119C12.8284 28.0819 10.2444 28.5299 9.63745 28.5719C8.59645 28.6459 6.26345 28.5869 6.11045 27.2649C5.82645 24.8059 6.37345 21.2419 6.52645 18.6939C6.67145 16.2999 6.72445 13.8919 6.94445 11.5119C7.12345 9.57694 7.41445 7.61694 7.74045 5.70094C7.67145 5.29694 6.70345 5.65394 6.42045 5.73794C4.93645 6.16994 3.88045 7.09094 3.20845 8.46794C2.64445 9.62194 2.87445 11.0239 1.31445 10.0889C-0.882552 8.77094 0.0114479 5.52994 1.54545 4.04394C6.89945 -1.14706 18.3754 2.78794 25.0864 0.76294C25.7654 0.55894 27.2524 -0.35206 27.7864 0.14794ZM64.8554 12.2219C63.9164 10.4479 63.3164 10.0629 61.2074 10.1919C60.5724 10.2319 58.4994 10.5049 58.4174 11.2509C58.6464 16.5269 58.1604 21.8849 56.8944 27.0119C57.1194 28.2319 59.0404 28.1859 59.9764 27.8919C61.7224 27.3429 61.4784 24.2699 61.8324 22.8389L61.9734 17.5219C62.2964 17.4519 62.1954 17.5629 62.2834 17.6989C63.8124 20.0779 64.6554 23.7979 66.2324 26.1829C66.8764 27.1589 68.1934 27.5299 68.9394 26.4869C69.8924 25.1549 70.8534 21.8209 71.5844 20.1489C72.0094 19.1779 72.5574 18.2239 72.9644 17.2429C73.3094 20.0149 72.6704 26.3159 75.7454 27.7299C77.0914 28.3499 79.2934 28.1839 80.4274 27.1899C81.8164 25.9719 80.5714 26.0569 79.8584 25.3469C78.4344 23.9279 78.2154 19.7219 78.1444 17.7339C78.0694 15.6569 78.4984 13.3739 78.3604 11.3669C78.2874 10.3059 75.7294 10.1169 74.8994 10.1979C72.6274 10.4189 71.2114 13.7149 70.3084 15.5569C69.7214 16.7539 69.1534 18.6669 68.5064 19.6929C68.4174 19.8349 68.5144 19.9349 68.1964 19.8699C67.1704 17.3539 66.1264 14.6229 64.8554 12.2219ZM47.5244 27.8839C49.9504 27.8839 52.9954 25.5079 54.2254 23.5269C56.5644 19.7629 56.9394 11.6889 51.8174 10.0529C48.2914 8.92594 45.4954 11.4159 43.7904 14.2039C43.3914 13.1109 43.8344 11.7799 43.0314 10.8179C42.0734 9.66994 38.9004 9.84594 37.8464 10.8839C38.3014 12.5749 38.2604 14.3299 38.3304 16.0679C38.4884 19.9709 38.4164 23.8789 38.3234 27.8089C38.2844 29.4579 38.2974 31.1069 38.2254 32.7539C38.3414 32.9759 38.4764 33.2599 38.7014 33.3839C39.5944 33.8769 43.0534 33.7299 43.7204 32.9259C44.1334 32.4279 43.6034 29.3059 43.7144 28.3609C43.7384 28.1589 43.7314 28.0049 43.9294 27.8839H47.5244ZM50.3634 18.9769C50.0774 22.5379 47.8694 25.6609 43.9484 25.1009C43.7694 25.0549 43.7504 24.9319 43.7214 24.7749C43.5954 24.0939 43.6794 22.2369 43.7164 21.4529C43.8244 19.1439 44.6604 14.6679 47.4164 14.0979C49.8664 13.5919 50.5034 17.2369 50.3634 18.9769ZM34.7344 27.9529C35.3954 27.7449 36.8574 26.8019 36.4644 25.9539C36.3114 25.6219 35.3954 24.9489 35.1194 24.3909C33.9304 21.9859 34.5154 16.2149 34.5944 13.4429C34.6404 11.8499 34.9964 11.1409 33.3904 10.5049C28.1764 8.44194 20.6084 10.4129 17.9804 15.6319C16.1354 19.2929 16.0644 26.5999 20.8784 27.9819C24.6424 29.0629 27.5244 26.7139 29.1934 23.5489L29.6184 23.4609C29.7704 26.3549 31.5054 28.9669 34.7344 27.9529ZM29.1874 12.9029C28.9064 14.1549 29.1574 15.4839 29.0634 16.7589C28.9224 18.6889 27.5784 23.5189 25.3704 23.9829C22.9294 24.4969 22.5814 21.2419 22.7074 19.5269C22.9304 16.4919 24.6384 13.1709 27.9254 12.7209C28.2024 12.6829 29.1064 12.5539 29.1874 12.9029ZM138.684 27.9269C139.363 27.7589 140.557 26.9359 140.729 26.2259C140.856 25.6999 139.683 25.2979 139.34 24.8359C138.158 23.2469 138.383 17.2169 138.427 15.0979C138.449 14.0789 138.738 12.6489 138.7 11.6599C138.644 10.1919 136.081 10.3729 135.047 10.4749C132.01 10.7749 133.04 12.8429 132.908 15.1089C132.765 17.5589 132.231 21.2319 130.548 23.1129C129.553 24.2239 128.048 24.5259 127.799 22.6899C127.363 19.4739 128.103 15.3659 127.793 12.0559C127.594 9.92694 124.499 10.1129 122.975 10.5699C121.389 11.0469 122.21 11.7349 122.262 13.0249C122.405 16.5909 121.587 22.2659 122.666 25.4709C123.865 29.0359 128.259 28.9399 130.755 26.7749C132.076 25.6289 132.366 24.6399 133.147 23.2239C133.234 23.0659 133.139 22.9899 133.454 23.0479C133.682 25.8949 135.395 28.7439 138.684 27.9269ZM115.863 27.9859C117.233 28.1829 119.288 28.0199 120.168 26.8189C119.959 26.1409 119.387 25.6819 119.149 24.9779C118.173 22.0859 118.88 16.8419 118.943 13.7269C118.959 12.9549 119.172 10.9519 118.486 10.5799C117.348 9.96294 113.462 10.3959 113.266 12.0599C113.162 12.9359 113.443 17.8439 113.001 18.1509C112.517 18.3799 112.005 18.0519 111.541 18.0619C110.976 18.0749 108.344 18.4689 108.075 18.0819C107.692 15.9919 108.495 13.4619 107.921 11.4659C107.708 10.7279 107.319 10.4209 106.563 10.3359C105.794 10.2499 102.783 10.3219 102.335 10.9469C101.994 11.4249 102.339 12.0949 102.351 12.6099C102.445 16.5549 102.409 20.4179 102.351 24.3659C102.34 25.1849 101.899 26.8099 102.476 27.5099C103 28.1459 105.827 27.9849 106.64 27.8219C107.108 27.7289 107.452 27.5489 107.847 27.3029L108.015 21.1129H113.131C113.263 23.3709 112.79 27.5449 115.863 27.9859ZM158.886 27.3789C157.669 23.4579 157.845 19.0579 157.923 14.9589C157.957 13.1779 158.772 11.9739 156.72 11.0599C152.793 9.30994 144.836 9.60394 142.759 14.0379C141.909 15.8529 142.088 18.1859 143.622 19.5899C144.609 20.4929 145.949 20.7899 147.134 21.3179C146.536 22.8589 145.442 24.4929 144.008 25.3719C143.004 25.9879 140.296 26.3239 142.624 27.7719C145.889 29.8039 149.43 26.7679 150.949 24.0179C151.341 23.3089 151.656 22.1939 152.013 21.6269C152.154 21.4019 152.168 21.3489 152.466 21.3889C152.818 23.1419 152.329 25.7699 153.692 27.1439C154.841 28.3019 157.627 28.4609 158.886 27.3789ZM152.398 19.1099C152.028 19.4299 150.747 19.2719 150.263 19.1699C148.26 18.7509 146.927 16.8649 147.896 14.8869C148.746 13.1509 150.622 12.8099 152.398 12.9609V19.1099ZM81.3314 18.2819C80.3314 31.6019 99.3284 31.5799 99.8564 19.6609C100.131 13.4499 95.6084 9.35694 89.4594 9.96294C85.1394 10.3879 81.6584 13.9369 81.3314 18.2819ZM93.7324 22.2469C93.2484 24.2749 91.5844 26.4849 89.2524 25.2869C86.8134 24.0319 86.9204 18.5169 87.4544 16.2489C87.7134 15.1489 88.6184 12.9699 89.8654 12.7159C94.4944 11.7739 94.4124 19.3979 93.7324 22.2469Z" fill="#333333"/>
</svg>
