<svg width="21" height="25" viewBox="0 0 21 25" fill="none" xmlns="http://www.w3.org/2000/svg">
<path fill-rule="evenodd" clip-rule="evenodd" d="M14.565 21.951C13.556 23.35 11.927 24.175 10.194 24.166C8.462 24.175 6.833 23.35 5.823 21.951C1.959 16.658 0 12.679 0 10.124C0 4.532 4.565 0 10.196 0C15.825 0.001 20.389 4.533 20.389 10.124C20.389 12.679 18.43 16.658 14.565 21.951ZM10.194 2.197C5.787 2.202 2.216 5.749 2.211 10.125C2.211 12.149 4.13 15.892 7.614 20.664C8.649 22.079 10.643 22.393 12.068 21.366C12.339 21.17 12.578 20.933 12.775 20.664C16.259 15.892 18.178 12.149 18.178 10.125C18.173 5.749 14.602 2.202 10.194 2.197ZM10.194 14.097C7.955 14.097 6.139 12.295 6.139 10.07C6.139 7.846 7.955 6.043 10.194 6.043C12.434 6.043 14.25 7.846 14.25 10.07C14.25 12.295 12.434 14.097 10.194 14.097ZM10.194 8.056C9.074 8.056 8.167 8.958 8.167 10.07C8.167 11.183 9.074 12.084 10.194 12.084C11.314 12.084 12.222 11.183 12.222 10.07C12.222 8.958 11.314 8.056 10.194 8.056Z" fill="#333333"/>
</svg>
