<svg width="24" height="24" viewBox="0 0 24 24" fill="none" xmlns="http://www.w3.org/2000/svg">
<path fill-rule="evenodd" clip-rule="evenodd" d="M12.6019 0.973878C12.6019 0.436878 13.0379 0.00187766 13.5749 0.00187766C18.9419 0.00787766 23.2919 4.35788 23.2979 9.72588C23.2979 10.2629 22.8629 10.6979 22.3259 10.6979C21.7889 10.6979 21.3529 10.2629 21.3529 9.72588C21.3489 5.43088 17.8689 1.95188 13.5749 1.94688C13.0379 1.94688 12.6019 1.51188 12.6019 0.973878ZM13.5749 5.83588C15.7229 5.83588 17.4639 7.57688 17.4639 9.72588C17.4639 10.2629 17.8989 10.6979 18.4359 10.6979C18.9729 10.6979 19.4089 10.2629 19.4089 9.72588C19.4059 6.50488 16.7949 3.89388 13.5749 3.89088C13.0379 3.89088 12.6019 4.32688 12.6019 4.86288C12.6019 5.39988 13.0379 5.83588 13.5749 5.83588ZM22.4159 16.2779C23.5889 17.4539 23.5889 19.3579 22.4159 20.5349L21.5309 21.5539C13.5679 29.1789 -5.81111 9.80488 1.69589 1.81588L2.81389 0.843878C3.99089 -0.296122 5.86489 -0.279122 7.02089 0.882878C7.05089 0.912878 8.85289 3.25288 8.85289 3.25288C9.96389 4.41988 9.96089 6.25388 8.84589 7.41688L7.71988 8.83288C8.97888 11.8909 11.4039 14.3209 14.4589 15.5859L15.8839 14.4529C17.0469 13.3389 18.8799 13.3369 20.0459 14.4469C20.0459 14.4469 22.3859 16.2479 22.4159 16.2779ZM21.0779 17.6909C21.0779 17.6909 18.7509 15.9019 18.7209 15.8719C18.3039 15.4579 17.6319 15.4579 17.2149 15.8719C17.1889 15.8989 15.2279 17.4619 15.2279 17.4619C14.9589 17.6749 14.5969 17.7319 14.2759 17.6089C10.3099 16.1319 7.18089 13.0079 5.69889 9.04488C5.56689 8.71888 5.61989 8.34688 5.83989 8.07188C5.83989 8.07188 7.40189 6.10988 7.42789 6.08488C7.84189 5.66788 7.84189 4.99588 7.42789 4.57888C7.39789 4.54988 5.60789 2.22088 5.60789 2.22088C5.18589 1.84188 4.54189 1.85888 4.13989 2.25888L3.02189 3.23088C-2.46411 9.82788 14.3289 25.6889 20.1099 20.2259L20.9959 19.2059C21.4269 18.8059 21.4639 18.1359 21.0779 17.6909Z" fill="#333333"/>
</svg>
