<svg width="26" height="26" viewBox="0 0 26 26" fill="none" xmlns="http://www.w3.org/2000/svg">
<path fill-rule="evenodd" clip-rule="evenodd" d="M24.978 22.7343L20.053 17.8073C23.738 12.8843 22.733 5.90526 17.809 2.22026C12.885 -1.46374 5.90598 -0.459742 2.22098 4.46426C-1.46402 9.38826 -0.460018 16.3663 4.46498 20.0513C8.41998 23.0113 13.853 23.0113 17.809 20.0513L22.736 24.9783C23.355 25.5973 24.359 25.5973 24.978 24.9783C25.597 24.3593 25.597 23.3553 24.978 22.7363V22.7343ZM11.178 19.1003C6.80098 19.1003 3.25398 15.5533 3.25398 11.1773C3.25398 6.80126 6.80098 3.25326 11.178 3.25326C15.554 3.25326 19.102 6.80126 19.102 11.1773C19.098 15.5513 15.552 19.0963 11.178 19.1003Z" fill="#333333"/>
</svg>
