<svg width="325" height="62" viewBox="0 0 325 62" fill="none" xmlns="http://www.w3.org/2000/svg">
<path d="M89.147 14.8203H84.4808C84.3956 14.2166 84.2216 13.6804 83.9588 13.2116C83.696 12.7358 83.3587 12.331 82.9467 11.9972C82.5348 11.6634 82.0589 11.4077 81.5192 11.2301C80.9865 11.0526 80.4077 10.9638 79.7827 10.9638C78.6534 10.9638 77.6697 11.2443 76.8317 11.8054C75.9936 12.3594 75.3438 13.169 74.8821 14.2344C74.4205 15.2926 74.1896 16.5781 74.1896 18.0909C74.1896 19.6463 74.4205 20.9531 74.8821 22.0114C75.3509 23.0696 76.0043 23.8686 76.8423 24.4084C77.6804 24.9482 78.6499 25.218 79.7507 25.218C80.3686 25.218 80.9403 25.1364 81.4659 24.973C81.9986 24.8097 82.4709 24.5717 82.8828 24.2592C83.2947 23.9396 83.6357 23.5526 83.9055 23.098C84.1825 22.6435 84.3743 22.125 84.4808 21.5426L89.147 21.5639C89.0263 22.5653 88.7244 23.5312 88.2415 24.4616C87.7656 25.3849 87.1229 26.2124 86.3132 26.9439C85.5107 27.6683 84.5518 28.2436 83.4368 28.6697C82.3288 29.0888 81.0753 29.2983 79.6761 29.2983C77.7301 29.2983 75.9901 28.858 74.456 27.9773C72.929 27.0966 71.7216 25.8217 70.8338 24.1527C69.9531 22.4837 69.5128 20.4631 69.5128 18.0909C69.5128 15.7116 69.9602 13.6875 70.8551 12.0185C71.75 10.3494 72.9645 9.07812 74.4986 8.20455C76.0327 7.32386 77.7585 6.88352 79.6761 6.88352C80.9403 6.88352 82.1122 7.06108 83.1918 7.41619C84.2784 7.77131 85.2408 8.28977 86.0788 8.97159C86.9169 9.64631 87.5987 10.4737 88.1243 11.4538C88.657 12.4339 88.9979 13.5561 89.147 14.8203ZM99.8271 29.3196C98.1438 29.3196 96.695 28.9787 95.4805 28.2969C94.2731 27.608 93.3427 26.6349 92.6893 25.3778C92.0359 24.1136 91.7092 22.6186 91.7092 20.8928C91.7092 19.2095 92.0359 17.7322 92.6893 16.4609C93.3427 15.1896 94.2624 14.1989 95.4485 13.4886C96.6417 12.7784 98.0408 12.4233 99.646 12.4233C100.725 12.4233 101.73 12.5973 102.661 12.9453C103.598 13.2862 104.415 13.8011 105.111 14.4901C105.814 15.179 106.361 16.0455 106.752 17.0895C107.142 18.1264 107.338 19.3409 107.338 20.733V21.9794H93.5202V19.1669H103.066C103.066 18.5135 102.924 17.9347 102.64 17.4304C102.355 16.9261 101.961 16.532 101.457 16.2479C100.96 15.9567 100.381 15.8111 99.7205 15.8111C99.0316 15.8111 98.4208 15.9709 97.8881 16.2905C97.3626 16.603 96.9506 17.0256 96.6523 17.5582C96.354 18.0838 96.2013 18.6697 96.1942 19.3161V21.9901C96.1942 22.7997 96.3434 23.4993 96.6417 24.0888C96.9471 24.6783 97.3768 25.1328 97.9308 25.4524C98.4847 25.772 99.1417 25.9318 99.9016 25.9318C100.406 25.9318 100.868 25.8608 101.287 25.7188C101.706 25.5767 102.064 25.3636 102.363 25.0795C102.661 24.7955 102.888 24.4474 103.044 24.0355L107.242 24.3125C107.029 25.321 106.592 26.2017 105.931 26.9545C105.278 27.7003 104.433 28.2827 103.396 28.7017C102.366 29.1136 101.176 29.3196 99.8271 29.3196ZM117.693 29.3196C116.038 29.3196 114.607 28.968 113.4 28.2649C112.199 27.5547 111.272 26.5675 110.619 25.3033C109.966 24.032 109.639 22.5582 109.639 20.8821C109.639 19.1918 109.966 17.7145 110.619 16.4503C111.272 15.179 112.199 14.1918 113.4 13.4886C114.607 12.7784 116.038 12.4233 117.693 12.4233C119.348 12.4233 120.775 12.7784 121.975 13.4886C123.183 14.1918 124.113 15.179 124.767 16.4503C125.42 17.7145 125.747 19.1918 125.747 20.8821C125.747 22.5582 125.42 24.032 124.767 25.3033C124.113 26.5675 123.183 27.5547 121.975 28.2649C120.775 28.968 119.348 29.3196 117.693 29.3196ZM117.714 25.804C118.467 25.804 119.096 25.5909 119.6 25.1648C120.104 24.7315 120.484 24.142 120.74 23.3963C121.002 22.6506 121.134 21.8018 121.134 20.8501C121.134 19.8984 121.002 19.0497 120.74 18.304C120.484 17.5582 120.104 16.9687 119.6 16.5355C119.096 16.1023 118.467 15.8857 117.714 15.8857C116.954 15.8857 116.315 16.1023 115.797 16.5355C115.285 16.9687 114.898 17.5582 114.635 18.304C114.38 19.0497 114.252 19.8984 114.252 20.8501C114.252 21.8018 114.38 22.6506 114.635 23.3963C114.898 24.142 115.285 24.7315 115.797 25.1648C116.315 25.5909 116.954 25.804 117.714 25.804ZM138.371 23.9822L142.803 12.6364H146.255L139.873 29H136.858L130.626 12.6364H134.067L138.371 23.9822ZM133.034 12.6364V29H128.698V12.6364H133.034ZM143.932 29V12.6364H148.215V29H143.932ZM159.183 29.3196C157.499 29.3196 156.05 28.9787 154.836 28.2969C153.629 27.608 152.698 26.6349 152.045 25.3778C151.391 24.1136 151.065 22.6186 151.065 20.8928C151.065 19.2095 151.391 17.7322 152.045 16.4609C152.698 15.1896 153.618 14.1989 154.804 13.4886C155.997 12.7784 157.396 12.4233 159.001 12.4233C160.081 12.4233 161.086 12.5973 162.016 12.9453C162.954 13.2862 163.771 13.8011 164.467 14.4901C165.17 15.179 165.717 16.0455 166.107 17.0895C166.498 18.1264 166.693 19.3409 166.693 20.733V21.9794H152.876V19.1669H162.421C162.421 18.5135 162.279 17.9347 161.995 17.4304C161.711 16.9261 161.317 16.532 160.812 16.2479C160.315 15.9567 159.737 15.8111 159.076 15.8111C158.387 15.8111 157.776 15.9709 157.244 16.2905C156.718 16.603 156.306 17.0256 156.008 17.5582C155.71 18.0838 155.557 18.6697 155.55 19.3161V21.9901C155.55 22.7997 155.699 23.4993 155.997 24.0888C156.303 24.6783 156.732 25.1328 157.286 25.4524C157.84 25.772 158.497 25.9318 159.257 25.9318C159.761 25.9318 160.223 25.8608 160.642 25.7188C161.061 25.5767 161.42 25.3636 161.718 25.0795C162.016 24.7955 162.244 24.4474 162.4 24.0355L166.597 24.3125C166.384 25.321 165.947 26.2017 165.287 26.9545C164.634 27.7003 163.788 28.2827 162.751 28.7017C161.722 29.1136 160.532 29.3196 159.183 29.3196ZM168.392 16.2053V12.6364H183.222V16.2053H177.949V29H173.623V16.2053H168.392ZM185.973 35.1364V12.6364H190.448V15.3849H190.65C190.849 14.9446 191.137 14.4972 191.513 14.0426C191.896 13.581 192.394 13.1974 193.004 12.892C193.622 12.5795 194.389 12.4233 195.306 12.4233C196.499 12.4233 197.6 12.7358 198.608 13.3608C199.617 13.9787 200.423 14.9126 201.026 16.1626C201.63 17.4055 201.932 18.9645 201.932 20.8395C201.932 22.6648 201.637 24.206 201.048 25.4631C200.465 26.7131 199.67 27.6612 198.661 28.3075C197.66 28.9467 196.538 29.2663 195.295 29.2663C194.414 29.2663 193.665 29.1207 193.047 28.8295C192.436 28.5384 191.936 28.1726 191.545 27.7322C191.154 27.2848 190.856 26.8338 190.65 26.3793H190.512V35.1364H185.973ZM190.416 20.8182C190.416 21.7912 190.551 22.6399 190.82 23.3643C191.09 24.0888 191.481 24.6534 191.992 25.0582C192.504 25.456 193.125 25.6548 193.857 25.6548C194.595 25.6548 195.22 25.4524 195.732 25.0476C196.243 24.6357 196.63 24.0675 196.893 23.343C197.163 22.6115 197.298 21.7699 197.298 20.8182C197.298 19.8736 197.166 19.0426 196.904 18.3253C196.641 17.608 196.254 17.0469 195.742 16.642C195.231 16.2372 194.602 16.0348 193.857 16.0348C193.118 16.0348 192.493 16.2301 191.982 16.6207C191.477 17.0114 191.09 17.5653 190.82 18.2827C190.551 19 190.416 19.8452 190.416 20.8182ZM209.294 23.0128L215.185 12.6364H219.659V29H215.334V18.5916L209.464 29H204.958V12.6364H209.294V23.0128ZM223.297 29V12.6364H227.836V18.9858H229.114L233.567 12.6364H238.894L233.109 20.7543L238.958 29H233.567L229.53 23.1939H227.836V29H223.297ZM245.542 29.3089C244.498 29.3089 243.567 29.1278 242.751 28.7656C241.934 28.3963 241.287 27.853 240.812 27.1357C240.343 26.4112 240.108 25.5092 240.108 24.4297C240.108 23.5206 240.275 22.7571 240.609 22.1392C240.943 21.5213 241.398 21.0241 241.973 20.6477C242.548 20.2713 243.202 19.9872 243.933 19.7955C244.672 19.6037 245.446 19.4688 246.256 19.3906C247.207 19.2912 247.974 19.1989 248.557 19.1136C249.139 19.0213 249.562 18.8864 249.824 18.7088C250.087 18.5312 250.219 18.2685 250.219 17.9205V17.8565C250.219 17.1818 250.006 16.6598 249.579 16.2905C249.16 15.9212 248.564 15.7365 247.79 15.7365C246.973 15.7365 246.323 15.9176 245.84 16.2798C245.357 16.6349 245.037 17.0824 244.881 17.6222L240.684 17.2812C240.897 16.2869 241.316 15.4276 241.941 14.7031C242.566 13.9716 243.372 13.4105 244.359 13.0199C245.354 12.6222 246.504 12.4233 247.811 12.4233C248.72 12.4233 249.59 12.5298 250.421 12.7429C251.259 12.956 252.001 13.2862 252.648 13.7337C253.301 14.1811 253.816 14.7564 254.192 15.4595C254.569 16.1555 254.757 16.9901 254.757 17.9631V29H250.453V26.7308H250.325C250.062 27.2422 249.711 27.6932 249.27 28.0838C248.83 28.4673 248.301 28.7692 247.683 28.9893C247.065 29.2024 246.351 29.3089 245.542 29.3089ZM246.841 26.1768C247.509 26.1768 248.099 26.0455 248.61 25.7827C249.121 25.5128 249.523 25.1506 249.814 24.696C250.105 24.2415 250.251 23.7266 250.251 23.1513V21.4148C250.108 21.5071 249.913 21.5923 249.665 21.6705C249.423 21.7415 249.15 21.8089 248.844 21.8729C248.539 21.9297 248.233 21.983 247.928 22.0327C247.623 22.0753 247.346 22.1143 247.097 22.1499C246.564 22.228 246.099 22.3523 245.702 22.5227C245.304 22.6932 244.995 22.924 244.775 23.2152C244.555 23.4993 244.444 23.8544 244.444 24.2805C244.444 24.8984 244.668 25.3707 245.116 25.6974C245.57 26.017 246.145 26.1768 246.841 26.1768Z" fill="#142741"/>
<path fill-rule="evenodd" clip-rule="evenodd" d="M68.4438 57.1033V38.9673H324.097V57.1033H68.4438ZM82.3198 45.0913C82.1018 44.6653 81.7808 44.3313 81.3568 44.0873C80.9318 43.8433 80.4078 43.7213 79.7838 43.7213H76.7388V52.2393H78.2098V49.3613H79.7648C80.3908 49.3613 80.9178 49.2403 81.3468 48.9963C81.7748 48.7553 82.0988 48.4213 82.3178 47.9973C82.5368 47.5733 82.6468 47.0873 82.6468 46.5413C82.6468 46.0003 82.5378 45.5163 82.3198 45.0913ZM87.9748 43.7213H86.1588L83.2998 52.2393H84.8698L85.5418 50.1383H88.5948L89.2678 52.2393H90.8378L87.9748 43.7213ZM96.9408 47.1693C97.2118 46.8443 97.3458 46.4423 97.3428 45.9633C97.3428 45.5303 97.2338 45.1343 97.0138 44.7773C96.7948 44.4193 96.4848 44.1353 96.0838 43.9233C95.6838 43.7103 95.2128 43.6043 94.6708 43.6043C94.1448 43.6043 93.6698 43.7073 93.2468 43.9103C92.8238 44.1143 92.4868 44.3963 92.2338 44.7593C91.9818 45.1203 91.8498 45.5393 91.8398 46.0173H93.2548C93.2628 45.7783 93.3318 45.5723 93.4618 45.3993C93.5908 45.2263 93.7618 45.0933 93.9728 44.9983C94.1838 44.9043 94.4138 44.8563 94.6628 44.8563C94.9168 44.8563 95.1378 44.9063 95.3268 45.0063C95.5158 45.1053 95.6628 45.2443 95.7668 45.4243C95.8718 45.6033 95.9228 45.8123 95.9198 46.0543C95.9228 46.3003 95.8628 46.5183 95.7418 46.7053C95.6198 46.8933 95.4528 47.0373 95.2398 47.1393C95.0268 47.2433 94.7788 47.2943 94.4968 47.2943H93.7788V48.4843H94.4968C94.8398 48.4843 95.1338 48.5393 95.3788 48.6503C95.6228 48.7613 95.8098 48.9143 95.9398 49.1123C96.0688 49.3083 96.1328 49.5363 96.1298 49.7943C96.1328 50.0433 96.0708 50.2643 95.9438 50.4553C95.8168 50.6463 95.6408 50.7963 95.4158 50.9033C95.1918 51.0083 94.9338 51.0623 94.6428 51.0623C94.3708 51.0623 94.1248 51.0153 93.9058 50.9203C93.6858 50.8273 93.5098 50.6953 93.3778 50.5243C93.2458 50.3523 93.1728 50.1523 93.1598 49.9223H91.6688C91.6848 50.4023 91.8208 50.8253 92.0778 51.1913C92.3338 51.5583 92.6838 51.8423 93.1258 52.0483C93.5688 52.2533 94.0758 52.3563 94.6468 52.3563C95.2288 52.3563 95.7448 52.2483 96.1948 52.0353C96.6458 51.8213 96.9998 51.5263 97.2578 51.1523C97.5158 50.7763 97.6448 50.3493 97.6448 49.8733C97.6468 49.3403 97.4958 48.8953 97.1908 48.5353C96.8848 48.1763 96.4468 47.9553 95.8758 47.8723V47.8053C96.3148 47.7063 96.6698 47.4933 96.9408 47.1693ZM105.019 45.0913C104.801 44.6653 104.48 44.3313 104.056 44.0873C103.631 43.8433 103.107 43.7213 102.484 43.7213H99.4378V52.2393H100.909V49.3613H102.464C103.09 49.3613 103.618 49.2403 104.046 48.9963C104.474 48.7553 104.798 48.4213 105.017 47.9973C105.237 47.5733 105.346 47.0873 105.346 46.5413C105.346 46.0003 105.237 45.5163 105.019 45.0913ZM110.674 43.7213H108.858L105.999 52.2393H107.569L108.241 50.1383H111.294L111.967 52.2393H113.537L110.674 43.7213ZM120.173 48.2263C119.936 47.8403 119.594 47.5413 119.148 47.3293C118.703 47.1163 118.17 47.0113 117.548 47.0113H115.982V45.0143H119.733V43.7213H114.511V52.2393H117.548C118.17 52.2393 118.703 52.1273 119.148 51.9023C119.594 51.6773 119.936 51.3673 120.173 50.9683C120.411 50.5703 120.53 50.1093 120.53 49.5863C120.53 49.0643 120.411 48.6113 120.173 48.2263ZM128.485 45.6233C128.159 44.9713 127.715 44.4713 127.153 44.1243C126.591 43.7773 125.955 43.6043 125.244 43.6043C124.533 43.6043 123.896 43.7773 123.334 44.1243C122.773 44.4713 122.328 44.9713 122.002 45.6233C121.676 46.2763 121.512 47.0623 121.512 47.9803C121.512 48.8953 121.676 49.6793 122.002 50.3323C122.328 50.9853 122.773 51.4863 123.334 51.8343C123.896 52.1823 124.533 52.3563 125.244 52.3563C125.955 52.3563 126.591 52.1833 127.153 51.8363C127.715 51.4893 128.159 50.9893 128.485 50.3363C128.811 49.6843 128.975 48.8983 128.975 47.9803C128.975 47.0623 128.811 46.2763 128.485 45.6233ZM136.396 43.7213H129.917V45.0143H132.427V52.2393H133.886V45.0143H136.396V43.7213ZM144.083 43.7213H142.271L139.385 47.2223H139.016V43.7213H137.545V52.2393H139.016V48.5173H139.738L142.41 52.2393H144.222L140.875 47.6053L144.083 43.7213ZM149.268 43.7213H147.453L144.594 52.2393H146.164L146.835 50.1383H149.888L150.561 52.2393H152.131L149.268 43.7213ZM164.945 43.7213H163.625L159.806 49.5273H159.731V43.7213H158.272V52.2393H159.576L163.407 46.4363H163.474V52.2393H164.945V43.7213ZM178.054 43.7643H171.569V52.3013H173.031V45.0483H176.592V52.3013H178.054V43.7643ZM185.759 45.1373C185.541 44.7103 185.219 44.3753 184.793 44.1303C184.368 43.8863 183.843 43.7643 183.218 43.7643H180.166V52.3013H181.64V49.4163H183.198C183.826 49.4163 184.354 49.2943 184.783 49.0513C185.213 48.8093 185.537 48.4743 185.757 48.0503C185.977 47.6243 186.087 47.1373 186.087 46.5903C186.087 46.0483 185.978 45.5643 185.759 45.1373ZM194.499 45.6713C194.172 45.0163 193.727 44.5163 193.164 44.1683C192.601 43.8203 191.963 43.6473 191.25 43.6473C190.538 43.6473 189.9 43.8203 189.337 44.1683C188.774 44.5163 188.329 45.0163 188.002 45.6713C187.674 46.3253 187.511 47.1123 187.511 48.0323C187.511 48.9503 187.674 49.7353 188.002 50.3903C188.329 51.0453 188.774 51.5463 189.337 51.8953C189.9 52.2443 190.538 52.4183 191.25 52.4183C191.963 52.4183 192.601 52.2443 193.164 51.8963C193.727 51.5493 194.172 51.0483 194.499 50.3943C194.826 49.7403 194.99 48.9523 194.99 48.0323C194.99 47.1123 194.826 46.3253 194.499 45.6713ZM204.227 51.0393H203.321V43.7643H198.119L197.904 47.3743C197.862 48.1413 197.785 48.7663 197.674 49.2503C197.563 49.7323 197.427 50.1143 197.268 50.3923C197.11 50.6703 196.939 50.8853 196.756 51.0393H196.211V54.3613H197.626V52.3013H202.812V54.3523H204.227V51.0393ZM211.592 48.8663C211.422 48.5603 211.205 47.4243 210.938 48.1553C210.672 47.9873 210.395 47.8953 210.106 47.8783V47.7953C210.371 47.7283 210.61 47.6183 210.825 47.4653C211.04 47.3123 211.211 47.1133 211.338 46.8673C211.465 46.6213 211.529 46.3243 211.529 45.9773C211.529 45.5553 211.431 45.1773 211.236 44.8433C211.042 44.5103 210.749 44.2463 210.358 44.0543C209.967 43.8603 209.478 43.7643 208.89 43.7643H205.774V52.3013H209.069C209.691 52.3013 210.208 52.1993 210.619 51.9973C211.029 51.7943 211.336 51.5173 211.54 51.1653C211.744 50.8133 211.846 50.4173 211.846 49.9743C211.846 49.5413 211.762 49.1723 211.592 48.8663ZM220.169 43.7643H218.846L215.019 49.5833H214.943V43.7643H213.481V52.3013H214.789L218.627 46.4863H218.695V52.3013H220.169V43.7643ZM232.49 43.7643H230.69L228.798 47.3703H227.86V43.7643H226.414V47.3703H225.512L223.588 43.7643H221.78L224.216 47.8163L221.633 52.3013H223.362L225.285 48.8033H226.414V52.3013H227.86V48.8033H229.009L230.897 52.3013H232.641L230.09 47.8113L232.49 43.7643ZM239.434 51.0043H235.583V48.6753H239.128V47.3783H235.583V45.0613H239.402V43.7643H234.109V52.3013H239.434V51.0043ZM247.983 43.7643H246.505V47.3783H242.734V43.7643H241.259V52.3013H242.734V48.6753H246.505V52.3013H247.983V43.7643ZM256.624 43.7643H255.301L251.474 49.5833H251.398V43.7643H249.936V52.3013H251.243L255.082 46.4863H255.15V52.3013H256.624V43.7643ZM263.902 51.0043H260.051V48.6753H263.596V47.3783H260.051V45.0613H263.87V43.7643H258.577V52.3013H263.902V51.0043ZM270.295 46.4003C270.488 45.9553 270.756 45.6153 271.097 45.3843C271.439 45.1513 271.831 45.0353 272.274 45.0353C272.523 45.0353 272.755 45.0703 272.971 45.1423C273.187 45.2123 273.38 45.3173 273.549 45.4563C273.719 45.5953 273.861 45.7653 273.975 45.9633C274.088 46.1613 274.167 46.3883 274.209 46.6443H275.695C275.634 46.1693 275.505 45.7463 275.308 45.3743C275.111 45.0043 274.859 44.6903 274.555 44.4333C274.25 44.1763 273.903 43.9803 273.514 43.8473C273.124 43.7133 272.703 43.6473 272.25 43.6473C271.54 43.6473 270.904 43.8203 270.342 44.1683C269.781 44.5163 269.337 45.0163 269.011 45.6713C268.685 46.3253 268.522 47.1123 268.522 48.0323C268.522 48.9503 268.684 49.7363 269.007 50.3923C269.33 51.0483 269.773 51.5493 270.334 51.8963C270.896 52.2443 271.534 52.4183 272.25 52.4183C272.735 52.4183 273.176 52.3413 273.573 52.1913C273.971 52.0393 274.318 51.8283 274.614 51.5583C274.911 51.2863 275.152 50.9733 275.336 50.6173C275.52 50.2613 275.64 49.8803 275.695 49.4753L274.209 49.4673C274.164 49.7173 274.083 49.9393 273.965 50.1333C273.847 50.3283 273.702 50.4923 273.532 50.6253C273.361 50.7583 273.168 50.8593 272.955 50.9273C272.742 50.9963 272.513 51.0293 272.27 51.0293C271.83 51.0293 271.44 50.9173 271.099 50.6903C270.759 50.4633 270.491 50.1273 270.297 49.6823C270.102 49.2353 270.005 48.6853 270.005 48.0323C270.005 47.3903 270.101 46.8463 270.295 46.4003ZM281.455 43.7643H279.635L276.77 52.3013H278.343L279.016 50.1963H282.076L282.751 52.3013H284.324L281.455 43.7643ZM289.881 41.5633C289.878 41.7653 289.817 41.9453 289.696 42.1003C289.576 42.2553 289.375 42.3343 289.094 42.3343C288.808 42.3343 288.606 42.2553 288.488 42.0983C288.37 41.9413 288.311 41.7623 288.311 41.5633H287.242C287.24 42.0493 287.406 42.4423 287.741 42.7443C288.076 43.0453 288.527 43.1963 289.094 43.1963C289.667 43.1963 290.12 43.0453 290.455 42.7443C290.791 42.4423 290.958 42.0493 290.958 41.5633H289.881ZM292.436 43.7643H291.113L287.286 49.5833H287.211V43.7643H285.748V52.3013H287.056L290.895 46.4863H290.962V52.3013H292.436V43.7643ZM300.525 43.7643H294.031V45.0613H296.547V52.3013H298.009V45.0613H300.525V43.7643ZM308.552 45.6713C308.224 45.0163 307.779 44.5163 307.216 44.1683C306.653 43.8203 306.016 43.6473 305.303 43.6473C304.59 43.6473 303.952 43.8203 303.389 44.1683C302.826 44.5163 302.381 45.0163 302.054 45.6713C301.727 46.3253 301.563 47.1123 301.563 48.0323C301.563 48.9503 301.727 49.7353 302.054 50.3903C302.381 51.0453 302.826 51.5463 303.389 51.8953C303.952 52.2443 304.59 52.4183 305.303 52.4183C306.016 52.4183 306.653 52.2443 307.216 51.8963C307.779 51.5493 308.224 51.0483 308.552 50.3943C308.879 49.7403 309.043 48.9523 309.043 48.0323C309.043 47.1123 308.879 46.3253 308.552 45.6713ZM316.61 48.8663C316.441 48.5603 316.223 47.4243 315.957 48.1553C315.69 47.9873 315.413 47.8953 315.124 47.8783V47.7953C315.389 47.7283 315.629 47.6183 315.843 47.4653C316.058 47.3123 316.229 47.1133 316.356 46.8673C316.483 46.6213 316.547 46.3243 316.547 45.9773C316.547 45.5553 316.449 45.1773 316.255 44.8433C316.06 44.5103 315.767 44.2463 315.376 44.0543C314.986 43.8603 314.496 43.7643 313.908 43.7643H310.792V52.3013H314.087C314.709 52.3013 315.226 52.1993 315.637 51.9973C316.047 51.7943 316.355 51.5173 316.559 51.1653C316.763 50.8133 316.865 50.4173 316.865 49.9743C316.865 49.5413 316.78 49.1723 316.61 48.8663ZM313.852 51.0083H312.267V48.5073H313.892C314.197 48.5073 314.459 48.5673 314.679 48.6853C314.899 48.8033 315.068 48.9643 315.188 49.1683C315.307 49.3733 315.366 49.6023 315.366 49.8543C315.366 50.1933 315.248 50.4713 315.011 50.6863C314.774 50.9023 314.387 51.0083 313.852 51.0083ZM314.413 47.2463C314.209 47.3463 313.979 47.3943 313.725 47.3943H312.267V45.0403H313.757C314.191 45.0403 314.519 45.1473 314.741 45.3603C314.962 45.5753 315.072 45.8473 315.072 46.1783C315.072 46.4273 315.013 46.6443 314.895 46.8263C314.778 47.0083 314.617 47.1473 314.413 47.2463ZM306.475 50.6863C306.136 50.9153 305.745 51.0293 305.303 51.0293C304.86 51.0293 304.47 50.9153 304.131 50.6863C303.791 50.4563 303.526 50.1193 303.334 49.6723C303.142 49.2273 303.046 48.6803 303.046 48.0323C303.046 47.3853 303.142 46.8383 303.334 46.3923C303.526 45.9463 303.791 45.6083 304.131 45.3793C304.47 45.1503 304.86 45.0353 305.303 45.0353C305.745 45.0353 306.136 45.1503 306.475 45.3793C306.814 45.6083 307.08 45.9463 307.272 46.3923C307.464 46.8383 307.56 47.3853 307.56 48.0323C307.56 48.6803 307.464 49.2273 307.272 49.6723C307.08 50.1193 306.814 50.4563 306.475 50.6863ZM280.513 45.5143H280.577L281.678 48.9543H279.414L280.513 45.5143ZM208.834 51.0083H207.248V48.5073H208.874C209.179 48.5073 209.441 48.5673 209.661 48.6853C209.881 48.8033 210.05 48.9643 210.169 49.1683C210.289 49.3733 210.348 49.6023 210.348 49.8543C210.348 50.1933 210.23 50.4713 209.993 50.6863C209.755 50.9023 209.369 51.0083 208.834 51.0083ZM209.395 47.2463C209.191 47.3463 208.961 47.3943 208.707 47.3943H207.248V45.0403H208.739C209.173 45.0403 209.501 45.1473 209.722 45.3603C209.944 45.5753 210.054 45.8473 210.054 46.1783C210.054 46.4273 209.995 46.6443 209.877 46.8263C209.759 47.0083 209.598 47.1473 209.395 47.2463ZM198.862 50.1453C198.979 49.7953 199.075 49.3923 199.152 48.9333C199.229 48.4743 199.285 47.9543 199.319 47.3743L199.446 45.0613H201.906V51.0393H198.473C198.616 50.7903 198.745 50.4923 198.862 50.1453ZM192.423 50.6863C192.084 50.9153 191.693 51.0293 191.25 51.0293C190.808 51.0293 190.417 50.9153 190.078 50.6863C189.739 50.4563 189.473 50.1193 189.281 49.6723C189.089 49.2273 188.993 48.6803 188.993 48.0323C188.993 47.3853 189.089 46.8383 189.281 46.3923C189.473 45.9463 189.739 45.6083 190.078 45.3793C190.417 45.1503 190.808 45.0353 191.25 45.0353C191.693 45.0353 192.084 45.1503 192.423 45.3793C192.762 45.6083 193.028 45.9463 193.22 46.3923C193.412 46.8383 193.508 47.3853 193.508 48.0323C193.508 48.6803 193.412 49.2273 193.22 49.6723C193.028 50.1193 192.762 50.4563 192.423 50.6863ZM183.897 47.9453C183.664 48.0793 183.365 48.1453 182.999 48.1453H181.64V45.0553H182.991C183.359 45.0553 183.661 45.1213 183.895 45.2503C184.13 45.3793 184.303 45.5593 184.416 45.7893C184.528 46.0213 184.585 46.2873 184.585 46.5903C184.585 46.8933 184.528 47.1613 184.416 47.3943C184.303 47.6283 184.13 47.8113 183.897 47.9453ZM148.329 45.4683H148.392L149.491 48.8993H147.232L148.329 45.4683ZM126.413 50.6273C126.075 50.8563 125.685 50.9703 125.244 50.9703C124.802 50.9703 124.412 50.8563 124.074 50.6273C123.735 50.3993 123.47 50.0623 123.279 49.6163C123.087 49.1723 122.991 48.6263 122.991 47.9803C122.991 47.3343 123.087 46.7883 123.279 46.3433C123.47 45.8983 123.735 45.5613 124.074 45.3333C124.412 45.1033 124.802 44.9903 125.244 44.9903C125.685 44.9903 126.075 45.1033 126.413 45.3333C126.752 45.5613 127.017 45.8983 127.208 46.3433C127.4 46.7883 127.496 47.3343 127.496 47.9803C127.496 48.6263 127.4 49.1723 127.208 49.6163C127.017 50.0623 126.752 50.3993 126.413 50.6273ZM118.381 50.7793C118.154 50.9103 117.876 50.9743 117.548 50.9743H115.982V48.2683H117.548C118.04 48.2683 118.417 48.3933 118.681 48.6483C118.944 48.9013 119.075 49.2083 119.075 49.5683C119.075 49.8193 119.016 50.0503 118.899 50.2643C118.781 50.4773 118.608 50.6493 118.381 50.7793ZM109.734 45.4683H109.798L110.897 48.8993H108.637L109.734 45.4683ZM103.162 47.8933C102.929 48.0263 102.63 48.0923 102.266 48.0923H100.909V45.0103H102.257C102.625 45.0103 102.926 45.0753 103.16 45.2033C103.394 45.3333 103.567 45.5123 103.679 45.7423C103.791 45.9723 103.848 46.2383 103.848 46.5413C103.848 46.8433 103.791 47.1103 103.679 47.3443C103.567 47.5763 103.394 47.7603 103.162 47.8933ZM87.0348 45.4683H87.0988L88.1978 48.8993H85.9378L87.0348 45.4683ZM80.4618 47.8933C80.2298 48.0263 79.9308 48.0923 79.5658 48.0923H78.2098V45.0103H79.5578C79.9258 45.0103 80.2258 45.0753 80.4608 45.2033C80.6938 45.3333 80.8668 45.5123 80.9798 45.7423C81.0918 45.9723 81.1478 46.2383 81.1478 46.5413C81.1478 46.8433 81.0918 47.1103 80.9798 47.3443C80.8668 47.5763 80.6948 47.7603 80.4618 47.8933Z" fill="#142741"/>
<path fill-rule="evenodd" clip-rule="evenodd" d="M25.125 59.2773L15.966 44.2683L5.238 61.8483L0 53.2653L15.966 27.1023L24.892 41.7303L30.712 32.1933L36.182 41.1583L25.125 59.2773Z" fill="#142741"/>
<path fill-rule="evenodd" clip-rule="evenodd" d="M52.929 50.9114L36.085 23.3164L30.665 32.1954L25.502 23.7374L36.239 6.14941L58.2449 42.2014L52.929 50.9114Z" fill="#142741"/>
</svg>
